<svg width="184" height="350" viewBox="0 0 184 350" fill="none" xmlns="http://www.w3.org/2000/svg">
<path d="M15.75 208H13.0568V199.273H15.8693C16.7159 199.273 17.4403 199.447 18.0426 199.797C18.6449 200.143 19.1065 200.642 19.4276 201.293C19.7486 201.94 19.9091 202.716 19.9091 203.619C19.9091 204.528 19.7472 205.311 19.4233 205.967C19.0994 206.621 18.6278 207.124 18.0085 207.476C17.3892 207.825 16.6364 208 15.75 208ZM14.1136 207.062H15.6818C16.4034 207.062 17.0014 206.923 17.4759 206.645C17.9503 206.366 18.304 205.97 18.5369 205.456C18.7699 204.942 18.8864 204.33 18.8864 203.619C18.8864 202.915 18.7713 202.308 18.5412 201.8C18.3111 201.288 17.9673 200.896 17.5099 200.624C17.0526 200.348 16.483 200.21 15.8011 200.21H14.1136V207.062ZM23.4716 208.153C23.0568 208.153 22.6804 208.075 22.3423 207.919C22.0043 207.76 21.7358 207.531 21.5369 207.233C21.3381 206.932 21.2386 206.568 21.2386 206.142C21.2386 205.767 21.3125 205.463 21.4602 205.23C21.608 204.994 21.8054 204.81 22.0526 204.676C22.2997 204.543 22.5724 204.443 22.8707 204.378C23.1719 204.31 23.4744 204.256 23.7784 204.216C24.1761 204.165 24.4986 204.126 24.7457 204.101C24.9957 204.072 25.1776 204.026 25.2912 203.96C25.4077 203.895 25.4659 203.781 25.4659 203.619V203.585C25.4659 203.165 25.3509 202.838 25.1207 202.605C24.8935 202.372 24.5483 202.256 24.0852 202.256C23.6051 202.256 23.2287 202.361 22.956 202.571C22.6832 202.781 22.4915 203.006 22.3807 203.244L21.4261 202.903C21.5966 202.506 21.8239 202.196 22.108 201.974C22.3949 201.75 22.7074 201.594 23.0455 201.506C23.3864 201.415 23.7216 201.369 24.0511 201.369C24.2614 201.369 24.5028 201.395 24.7756 201.446C25.0511 201.494 25.3168 201.595 25.5724 201.749C25.831 201.902 26.0455 202.134 26.2159 202.443C26.3864 202.753 26.4716 203.168 26.4716 203.688V208H25.4659V207.114H25.4148C25.3466 207.256 25.233 207.408 25.0739 207.57C24.9148 207.732 24.7031 207.869 24.4389 207.983C24.1747 208.097 23.8523 208.153 23.4716 208.153ZM23.625 207.25C24.0227 207.25 24.358 207.172 24.6307 207.016C24.9063 206.859 25.1136 206.658 25.2528 206.411C25.3949 206.163 25.4659 205.903 25.4659 205.631V204.71C25.4233 204.761 25.3295 204.808 25.1847 204.851C25.0426 204.891 24.8778 204.926 24.6903 204.957C24.5057 204.986 24.3253 205.011 24.1491 205.034C23.9759 205.054 23.8352 205.071 23.7273 205.085C23.4659 205.119 23.2216 205.175 22.9943 205.251C22.7699 205.325 22.5881 205.437 22.4489 205.588C22.3125 205.736 22.2443 205.937 22.2443 206.193C22.2443 206.543 22.3736 206.807 22.6321 206.986C22.8935 207.162 23.2244 207.25 23.625 207.25ZM31.1538 201.455V202.307H27.7617V201.455H31.1538ZM28.7504 199.886H29.756V206.125C29.756 206.409 29.7972 206.622 29.8796 206.764C29.9648 206.903 30.0728 206.997 30.2035 207.045C30.337 207.091 30.4776 207.114 30.6254 207.114C30.7362 207.114 30.8271 207.108 30.8981 207.097C30.9691 207.082 31.0259 207.071 31.0685 207.062L31.2731 207.966C31.2049 207.991 31.1097 208.017 30.9876 208.043C30.8654 208.071 30.7106 208.085 30.5231 208.085C30.239 208.085 29.9606 208.024 29.6879 207.902C29.418 207.78 29.1935 207.594 29.0146 207.344C28.8384 207.094 28.7504 206.778 28.7504 206.398V199.886ZM34.5927 208.153C34.1779 208.153 33.8015 208.075 33.4634 207.919C33.1254 207.76 32.8569 207.531 32.658 207.233C32.4592 206.932 32.3597 206.568 32.3597 206.142C32.3597 205.767 32.4336 205.463 32.5813 205.23C32.729 204.994 32.9265 204.81 33.1737 204.676C33.4208 204.543 33.6935 204.443 33.9918 204.378C34.293 204.31 34.5955 204.256 34.8995 204.216C35.2972 204.165 35.6197 204.126 35.8668 204.101C36.1168 204.072 36.2987 204.026 36.4123 203.96C36.5288 203.895 36.587 203.781 36.587 203.619V203.585C36.587 203.165 36.4719 202.838 36.2418 202.605C36.0146 202.372 35.6694 202.256 35.2063 202.256C34.7262 202.256 34.3498 202.361 34.0771 202.571C33.8043 202.781 33.6126 203.006 33.5018 203.244L32.5472 202.903C32.7177 202.506 32.945 202.196 33.229 201.974C33.516 201.75 33.8285 201.594 34.1665 201.506C34.5075 201.415 34.8427 201.369 35.1722 201.369C35.3825 201.369 35.6239 201.395 35.8967 201.446C36.1722 201.494 36.4379 201.595 36.6935 201.749C36.9521 201.902 37.1665 202.134 37.337 202.443C37.5075 202.753 37.5927 203.168 37.5927 203.688V208H36.587V207.114H36.5359C36.4677 207.256 36.354 207.408 36.195 207.57C36.0359 207.732 35.8242 207.869 35.56 207.983C35.2958 208.097 34.9734 208.153 34.5927 208.153ZM34.7461 207.25C35.1438 207.25 35.479 207.172 35.7518 207.016C36.0273 206.859 36.2347 206.658 36.3739 206.411C36.516 206.163 36.587 205.903 36.587 205.631V204.71C36.5444 204.761 36.4506 204.808 36.3058 204.851C36.1637 204.891 35.9989 204.926 35.8114 204.957C35.6268 204.986 35.4464 205.011 35.2702 205.034C35.0969 205.054 34.9563 205.071 34.8484 205.085C34.587 205.119 34.3427 205.175 34.1154 205.251C33.891 205.325 33.7092 205.437 33.57 205.588C33.4336 205.736 33.3654 205.937 33.3654 206.193C33.3654 206.543 33.4947 206.807 33.7532 206.986C34.0146 207.162 34.3455 207.25 34.7461 207.25ZM42.9396 208V199.273H43.9964V207.062H48.0533V208H42.9396ZM51.4794 208.153C51.0646 208.153 50.6882 208.075 50.3501 207.919C50.0121 207.76 49.7436 207.531 49.5447 207.233C49.3459 206.932 49.2464 206.568 49.2464 206.142C49.2464 205.767 49.3203 205.463 49.468 205.23C49.6158 204.994 49.8132 204.81 50.0604 204.676C50.3075 204.543 50.5803 204.443 50.8786 204.378C51.1797 204.31 51.4822 204.256 51.7862 204.216C52.1839 204.165 52.5064 204.126 52.7536 204.101C53.0036 204.072 53.1854 204.026 53.299 203.96C53.4155 203.895 53.4737 203.781 53.4737 203.619V203.585C53.4737 203.165 53.3587 202.838 53.1286 202.605C52.9013 202.372 52.5561 202.256 52.093 202.256C51.6129 202.256 51.2365 202.361 50.9638 202.571C50.6911 202.781 50.4993 203.006 50.3885 203.244L49.4339 202.903C49.6044 202.506 49.8317 202.196 50.1158 201.974C50.4027 201.75 50.7152 201.594 51.0533 201.506C51.3942 201.415 51.7294 201.369 52.0589 201.369C52.2692 201.369 52.5107 201.395 52.7834 201.446C53.0589 201.494 53.3246 201.595 53.5803 201.749C53.8388 201.902 54.0533 202.134 54.2237 202.443C54.3942 202.753 54.4794 203.168 54.4794 203.688V208H53.4737V207.114H53.4226C53.3544 207.256 53.2408 207.408 53.0817 207.57C52.9226 207.732 52.7109 207.869 52.4467 207.983C52.1825 208.097 51.8601 208.153 51.4794 208.153ZM51.6328 207.25C52.0305 207.25 52.3658 207.172 52.6385 207.016C52.9141 206.859 53.1214 206.658 53.2607 206.411C53.4027 206.163 53.4737 205.903 53.4737 205.631V204.71C53.4311 204.761 53.3374 204.808 53.1925 204.851C53.0504 204.891 52.8857 204.926 52.6982 204.957C52.5135 204.986 52.3331 205.011 52.157 205.034C51.9837 205.054 51.843 205.071 51.7351 205.085C51.4737 205.119 51.2294 205.175 51.0021 205.251C50.7777 205.325 50.5959 205.437 50.4567 205.588C50.3203 205.736 50.2521 205.937 50.2521 206.193C50.2521 206.543 50.3814 206.807 50.6399 206.986C50.9013 207.162 51.2322 207.25 51.6328 207.25ZM56.7283 210.455C56.5579 210.455 56.4059 210.44 56.2724 210.412C56.1388 210.386 56.0465 210.361 55.9954 210.335L56.2511 209.449C56.4954 209.511 56.7113 209.534 56.8988 209.517C57.0863 209.5 57.2525 209.416 57.3974 209.266C57.5451 209.118 57.68 208.878 57.8022 208.545L57.9897 208.034L55.5692 201.455H56.6602L58.467 206.67H58.5352L60.342 201.455H61.4329L58.6545 208.955C58.5295 209.293 58.3746 209.572 58.19 209.794C58.0053 210.018 57.7908 210.185 57.5465 210.293C57.305 210.401 57.0323 210.455 56.7283 210.455ZM65.2702 208.136C64.6396 208.136 64.0955 207.997 63.6381 207.719C63.1836 207.438 62.8327 207.045 62.5856 206.543C62.3413 206.037 62.2191 205.449 62.2191 204.778C62.2191 204.108 62.3413 203.517 62.5856 203.006C62.8327 202.491 63.1765 202.091 63.6168 201.804C64.06 201.514 64.5771 201.369 65.168 201.369C65.5089 201.369 65.8455 201.426 66.1779 201.54C66.5103 201.653 66.8129 201.838 67.0856 202.094C67.3583 202.347 67.5756 202.682 67.7376 203.099C67.8995 203.517 67.9805 204.031 67.9805 204.642V205.068H62.935V204.199H66.9577C66.9577 203.83 66.8839 203.5 66.7362 203.21C66.5913 202.92 66.3839 202.692 66.114 202.524C65.8469 202.357 65.5316 202.273 65.168 202.273C64.7674 202.273 64.4208 202.372 64.1282 202.571C63.8384 202.767 63.6154 203.023 63.4592 203.338C63.3029 203.653 63.2248 203.991 63.2248 204.352V204.932C63.2248 205.426 63.31 205.845 63.4805 206.189C63.6538 206.53 63.8938 206.79 64.2006 206.969C64.5075 207.145 64.864 207.233 65.2702 207.233C65.5344 207.233 65.7731 207.196 65.9862 207.122C66.2021 207.045 66.3881 206.932 66.5444 206.781C66.7006 206.628 66.8214 206.437 66.9066 206.21L67.8782 206.483C67.7759 206.812 67.604 207.102 67.3626 207.352C67.1211 207.599 66.8228 207.793 66.4677 207.932C66.1126 208.068 65.7134 208.136 65.2702 208.136ZM69.5103 208V201.455H70.4819V202.443H70.5501C70.6694 202.119 70.8853 201.857 71.1978 201.655C71.5103 201.453 71.8626 201.352 72.2546 201.352C72.3285 201.352 72.4208 201.354 72.5316 201.357C72.6424 201.359 72.7262 201.364 72.783 201.369V202.392C72.7489 202.384 72.6708 202.371 72.5487 202.354C72.4293 202.334 72.3029 202.324 72.1694 202.324C71.8512 202.324 71.5671 202.391 71.3171 202.524C71.07 202.655 70.8739 202.837 70.729 203.07C70.587 203.3 70.516 203.562 70.516 203.858V208H69.5103Z" fill="white"/>
<rect width="184" height="160" rx="8" fill="#70D68C"/>
<path d="M15.5391 21.625H17.4922V29.2266C17.4922 30.0911 17.3047 30.8151 16.9297 31.3984C16.5547 31.9818 16.0443 32.4219 15.3984 32.7188C14.7578 33.0104 14.0417 33.1562 13.25 33.1562C12.4323 33.1562 11.7031 33.0104 11.0625 32.7188C10.4219 32.4219 9.91667 31.9818 9.54688 31.3984C9.18229 30.8151 9 30.0911 9 29.2266V21.625H10.9531V29.2266C10.9531 29.7734 11.0469 30.224 11.2344 30.5781C11.4219 30.9271 11.6875 31.1849 12.0312 31.3516C12.375 31.5182 12.7812 31.6016 13.25 31.6016C13.7188 31.6016 14.1224 31.5182 14.4609 31.3516C14.8047 31.1849 15.0703 30.9271 15.2578 30.5781C15.4453 30.224 15.5391 29.7734 15.5391 29.2266V21.625ZM21.7188 21.625V33H19.7578V21.625H21.7188ZM35.2656 31.4453V33H29.5547V31.4453H35.2656ZM30.1016 21.625V33H28.1406V21.625H30.1016ZM41.3594 31.3047V27.2734C41.3594 26.9714 41.3047 26.7109 41.1953 26.4922C41.0859 26.2734 40.9193 26.1042 40.6953 25.9844C40.4766 25.8646 40.2005 25.8047 39.8672 25.8047C39.5599 25.8047 39.2943 25.8568 39.0703 25.9609C38.8464 26.0651 38.6719 26.2057 38.5469 26.3828C38.4219 26.5599 38.3594 26.7604 38.3594 26.9844H36.4844C36.4844 26.651 36.5651 26.3281 36.7266 26.0156C36.888 25.7031 37.1224 25.4245 37.4297 25.1797C37.737 24.9349 38.1042 24.7422 38.5312 24.6016C38.9583 24.4609 39.4375 24.3906 39.9688 24.3906C40.6042 24.3906 41.1667 24.4974 41.6562 24.7109C42.151 24.9245 42.5391 25.2474 42.8203 25.6797C43.1068 26.1068 43.25 26.6432 43.25 27.2891V31.0469C43.25 31.4323 43.276 31.7786 43.3281 32.0859C43.3854 32.388 43.4661 32.651 43.5703 32.875V33H41.6406C41.5521 32.7969 41.4818 32.5391 41.4297 32.2266C41.3828 31.9089 41.3594 31.6016 41.3594 31.3047ZM41.6328 27.8594L41.6484 29.0234H40.2969C39.9479 29.0234 39.6406 29.0573 39.375 29.125C39.1094 29.1875 38.888 29.2812 38.7109 29.4062C38.5339 29.5312 38.401 29.6823 38.3125 29.8594C38.224 30.0365 38.1797 30.237 38.1797 30.4609C38.1797 30.6849 38.2318 30.8906 38.3359 31.0781C38.4401 31.2604 38.5911 31.4036 38.7891 31.5078C38.9922 31.612 39.237 31.6641 39.5234 31.6641C39.9089 31.6641 40.2448 31.5859 40.5312 31.4297C40.8229 31.2682 41.0521 31.0729 41.2188 30.8438C41.3854 30.6094 41.474 30.388 41.4844 30.1797L42.0938 31.0156C42.0312 31.2292 41.9245 31.4583 41.7734 31.7031C41.6224 31.9479 41.4245 32.1823 41.1797 32.4062C40.9401 32.625 40.651 32.8047 40.3125 32.9453C39.9792 33.0859 39.5938 33.1562 39.1562 33.1562C38.6042 33.1562 38.112 33.0469 37.6797 32.8281C37.2474 32.6042 36.9089 32.3047 36.6641 31.9297C36.4193 31.5495 36.2969 31.1198 36.2969 30.6406C36.2969 30.1927 36.3802 29.7969 36.5469 29.4531C36.7188 29.1042 36.9688 28.8125 37.2969 28.5781C37.6302 28.3438 38.0365 28.1667 38.5156 28.0469C38.9948 27.9219 39.5417 27.8594 40.1562 27.8594H41.6328ZM47.5469 32.0781L49.8438 24.5469H51.8594L48.4688 34.2891C48.3906 34.4974 48.2891 34.724 48.1641 34.9688C48.0391 35.2135 47.875 35.4453 47.6719 35.6641C47.474 35.888 47.2266 36.0677 46.9297 36.2031C46.6328 36.3438 46.2734 36.4141 45.8516 36.4141C45.6849 36.4141 45.5234 36.3984 45.3672 36.3672C45.2161 36.3411 45.0729 36.3125 44.9375 36.2812L44.9297 34.8438C44.9818 34.849 45.0443 34.8542 45.1172 34.8594C45.1953 34.8646 45.2578 34.8672 45.3047 34.8672C45.6172 34.8672 45.8776 34.8281 46.0859 34.75C46.2943 34.6771 46.4635 34.5573 46.5938 34.3906C46.7292 34.224 46.8438 34 46.9375 33.7188L47.5469 32.0781ZM46.25 24.5469L48.2578 30.875L48.5938 32.8594L47.2891 33.1953L44.2188 24.5469H46.25ZM56.5547 33.1562C55.9297 33.1562 55.3646 33.0547 54.8594 32.8516C54.3594 32.6432 53.9323 32.3542 53.5781 31.9844C53.2292 31.6146 52.9609 31.1797 52.7734 30.6797C52.5859 30.1797 52.4922 29.6406 52.4922 29.0625V28.75C52.4922 28.0885 52.5885 27.4896 52.7812 26.9531C52.974 26.4167 53.2422 25.9583 53.5859 25.5781C53.9297 25.1927 54.3359 24.8984 54.8047 24.6953C55.2734 24.4922 55.7812 24.3906 56.3281 24.3906C56.9323 24.3906 57.4609 24.4922 57.9141 24.6953C58.3672 24.8984 58.7422 25.1849 59.0391 25.5547C59.3411 25.9193 59.5651 26.3542 59.7109 26.8594C59.862 27.3646 59.9375 27.9219 59.9375 28.5312V29.3359H53.4062V27.9844H58.0781V27.8359C58.0677 27.4974 58 27.1797 57.875 26.8828C57.7552 26.5859 57.5703 26.3464 57.3203 26.1641C57.0703 25.9818 56.737 25.8906 56.3203 25.8906C56.0078 25.8906 55.7292 25.9583 55.4844 26.0938C55.2448 26.224 55.0443 26.4141 54.8828 26.6641C54.7214 26.9141 54.5964 27.2161 54.5078 27.5703C54.4245 27.9193 54.3828 28.3125 54.3828 28.75V29.0625C54.3828 29.4323 54.4323 29.776 54.5312 30.0938C54.6354 30.4062 54.7865 30.6797 54.9844 30.9141C55.1823 31.1484 55.4219 31.3333 55.7031 31.4688C55.9844 31.599 56.3047 31.6641 56.6641 31.6641C57.1172 31.6641 57.5208 31.5729 57.875 31.3906C58.2292 31.2083 58.5365 30.9505 58.7969 30.6172L59.7891 31.5781C59.6068 31.8438 59.3698 32.099 59.0781 32.3438C58.7865 32.5833 58.4297 32.7786 58.0078 32.9297C57.5911 33.0807 57.1068 33.1562 56.5547 33.1562ZM63.2969 26.1562V33H61.4141V24.5469H63.2109L63.2969 26.1562ZM65.8828 24.4922L65.8672 26.2422C65.7526 26.2214 65.6276 26.2057 65.4922 26.1953C65.362 26.1849 65.2318 26.1797 65.1016 26.1797C64.7786 26.1797 64.4948 26.2266 64.25 26.3203C64.0052 26.4089 63.7995 26.5391 63.6328 26.7109C63.4714 26.8776 63.3464 27.0807 63.2578 27.3203C63.1693 27.5599 63.1172 27.8281 63.1016 28.125L62.6719 28.1562C62.6719 27.625 62.724 27.1328 62.8281 26.6797C62.9323 26.2266 63.0885 25.8281 63.2969 25.4844C63.5104 25.1406 63.776 24.8724 64.0938 24.6797C64.4167 24.487 64.7891 24.3906 65.2109 24.3906C65.3255 24.3906 65.4479 24.401 65.5781 24.4219C65.7135 24.4427 65.8151 24.4661 65.8828 24.4922Z" fill="white"/>
<rect x="8" y="56" width="167" height="31" rx="4" fill="white"/>
<path d="M66.3125 72.5625L68.5703 64.625H69.6641L69.0312 67.7109L66.6016 76H65.5156L66.3125 72.5625ZM63.9766 64.625L65.7734 72.4062L66.3125 76H65.2344L62.4766 64.625H63.9766ZM72.5859 72.3984L74.3438 64.625H75.8516L73.1016 76H72.0234L72.5859 72.3984ZM69.8281 64.625L72.0234 72.5625L72.8203 76H71.7344L69.3906 67.7109L68.75 64.625H69.8281ZM78.875 67.5469V76H77.4219V67.5469H78.875ZM77.3125 65.3047C77.3125 65.0703 77.3828 64.8724 77.5234 64.7109C77.6693 64.5495 77.8828 64.4688 78.1641 64.4688C78.4401 64.4688 78.651 64.5495 78.7969 64.7109C78.9479 64.8724 79.0234 65.0703 79.0234 65.3047C79.0234 65.5286 78.9479 65.7214 78.7969 65.8828C78.651 66.0391 78.4401 66.1172 78.1641 66.1172C77.8828 66.1172 77.6693 66.0391 77.5234 65.8828C77.3828 65.7214 77.3125 65.5286 77.3125 65.3047ZM86.5234 74.3594V64H87.9766V76H86.6484L86.5234 74.3594ZM80.8359 71.8672V71.7031C80.8359 71.0573 80.9141 70.4714 81.0703 69.9453C81.2318 69.4141 81.4583 68.9583 81.75 68.5781C82.0469 68.1979 82.3984 67.9062 82.8047 67.7031C83.2161 67.4948 83.6745 67.3906 84.1797 67.3906C84.7109 67.3906 85.1745 67.4844 85.5703 67.6719C85.9714 67.8542 86.3099 68.1224 86.5859 68.4766C86.8672 68.8255 87.0885 69.2474 87.25 69.7422C87.4115 70.237 87.5234 70.7969 87.5859 71.4219V72.1406C87.5286 72.7604 87.4167 73.3177 87.25 73.8125C87.0885 74.3073 86.8672 74.7292 86.5859 75.0781C86.3099 75.4271 85.9714 75.6953 85.5703 75.8828C85.1693 76.0651 84.7005 76.1562 84.1641 76.1562C83.6693 76.1562 83.2161 76.0495 82.8047 75.8359C82.3984 75.6224 82.0469 75.3229 81.75 74.9375C81.4583 74.5521 81.2318 74.099 81.0703 73.5781C80.9141 73.0521 80.8359 72.4818 80.8359 71.8672ZM82.2891 71.7031V71.8672C82.2891 72.2891 82.3307 72.6849 82.4141 73.0547C82.5026 73.4245 82.638 73.75 82.8203 74.0312C83.0026 74.3125 83.2344 74.5339 83.5156 74.6953C83.7969 74.8516 84.1328 74.9297 84.5234 74.9297C85.0026 74.9297 85.3958 74.8281 85.7031 74.625C86.0156 74.4219 86.2656 74.1536 86.4531 73.8203C86.6406 73.487 86.7865 73.125 86.8906 72.7344V70.8516C86.8281 70.5651 86.737 70.2891 86.6172 70.0234C86.5026 69.7526 86.3516 69.513 86.1641 69.3047C85.9818 69.0911 85.7552 68.9219 85.4844 68.7969C85.2188 68.6719 84.9036 68.6094 84.5391 68.6094C84.1432 68.6094 83.8021 68.6927 83.5156 68.8594C83.2344 69.0208 83.0026 69.2448 82.8203 69.5312C82.638 69.8125 82.5026 70.1406 82.4141 70.5156C82.3307 70.8854 82.2891 71.2812 82.2891 71.7031ZM95.7031 67.5469H97.0156V75.8203C97.0156 76.5651 96.8646 77.2005 96.5625 77.7266C96.2604 78.2526 95.8385 78.651 95.2969 78.9219C94.7604 79.1979 94.1406 79.3359 93.4375 79.3359C93.1458 79.3359 92.8021 79.2891 92.4062 79.1953C92.0156 79.1068 91.6302 78.9531 91.25 78.7344C90.875 78.5208 90.5599 78.2318 90.3047 77.8672L91.0625 77.0078C91.4167 77.4349 91.7865 77.7318 92.1719 77.8984C92.5625 78.0651 92.9479 78.1484 93.3281 78.1484C93.7865 78.1484 94.1823 78.0625 94.5156 77.8906C94.849 77.7188 95.1068 77.4635 95.2891 77.125C95.4766 76.7917 95.5703 76.3802 95.5703 75.8906V69.4062L95.7031 67.5469ZM89.8828 71.8672V71.7031C89.8828 71.0573 89.9583 70.4714 90.1094 69.9453C90.2656 69.4141 90.487 68.9583 90.7734 68.5781C91.0651 68.1979 91.4167 67.9062 91.8281 67.7031C92.2396 67.4948 92.7031 67.3906 93.2188 67.3906C93.75 67.3906 94.2135 67.4844 94.6094 67.6719C95.0104 67.8542 95.349 68.1224 95.625 68.4766C95.9062 68.8255 96.1276 69.2474 96.2891 69.7422C96.4505 70.237 96.5625 70.7969 96.625 71.4219V72.1406C96.5677 72.7604 96.4557 73.3177 96.2891 73.8125C96.1276 74.3073 95.9062 74.7292 95.625 75.0781C95.349 75.4271 95.0104 75.6953 94.6094 75.8828C94.2083 76.0651 93.7396 76.1562 93.2031 76.1562C92.6979 76.1562 92.2396 76.0495 91.8281 75.8359C91.4219 75.6224 91.0729 75.3229 90.7812 74.9375C90.4896 74.5521 90.2656 74.099 90.1094 73.5781C89.9583 73.0521 89.8828 72.4818 89.8828 71.8672ZM91.3281 71.7031V71.8672C91.3281 72.2891 91.3698 72.6849 91.4531 73.0547C91.5417 73.4245 91.6745 73.75 91.8516 74.0312C92.0339 74.3125 92.2656 74.5339 92.5469 74.6953C92.8281 74.8516 93.1641 74.9297 93.5547 74.9297C94.0339 74.9297 94.4297 74.8281 94.7422 74.625C95.0547 74.4219 95.3021 74.1536 95.4844 73.8203C95.6719 73.487 95.8177 73.125 95.9219 72.7344V70.8516C95.8646 70.5651 95.776 70.2891 95.6562 70.0234C95.5417 69.7526 95.3906 69.513 95.2031 69.3047C95.0208 69.0911 94.7943 68.9219 94.5234 68.7969C94.2526 68.6719 93.9349 68.6094 93.5703 68.6094C93.1745 68.6094 92.8333 68.6927 92.5469 68.8594C92.2656 69.0208 92.0339 69.2448 91.8516 69.5312C91.6745 69.8125 91.5417 70.1406 91.4531 70.5156C91.3698 70.8854 91.3281 71.2812 91.3281 71.7031ZM102.719 76.1562C102.13 76.1562 101.596 76.0573 101.117 75.8594C100.643 75.6562 100.234 75.3724 99.8906 75.0078C99.5521 74.6432 99.2917 74.2109 99.1094 73.7109C98.9271 73.2109 98.8359 72.6641 98.8359 72.0703V71.7422C98.8359 71.0547 98.9375 70.4427 99.1406 69.9062C99.3438 69.3646 99.6198 68.9062 99.9688 68.5312C100.318 68.1562 100.714 67.8724 101.156 67.6797C101.599 67.487 102.057 67.3906 102.531 67.3906C103.135 67.3906 103.656 67.4948 104.094 67.7031C104.536 67.9115 104.898 68.2031 105.18 68.5781C105.461 68.9479 105.669 69.3854 105.805 69.8906C105.94 70.3906 106.008 70.9375 106.008 71.5312V72.1797H99.6953V71H104.562V70.8906C104.542 70.5156 104.464 70.151 104.328 69.7969C104.198 69.4427 103.99 69.151 103.703 68.9219C103.417 68.6927 103.026 68.5781 102.531 68.5781C102.203 68.5781 101.901 68.6484 101.625 68.7891C101.349 68.9245 101.112 69.1276 100.914 69.3984C100.716 69.6693 100.562 70 100.453 70.3906C100.344 70.7812 100.289 71.2318 100.289 71.7422V72.0703C100.289 72.4714 100.344 72.849 100.453 73.2031C100.568 73.5521 100.732 73.8594 100.945 74.125C101.164 74.3906 101.427 74.599 101.734 74.75C102.047 74.901 102.401 74.9766 102.797 74.9766C103.307 74.9766 103.74 74.8724 104.094 74.6641C104.448 74.4557 104.758 74.1771 105.023 73.8281L105.898 74.5234C105.716 74.7995 105.484 75.0625 105.203 75.3125C104.922 75.5625 104.576 75.7656 104.164 75.9219C103.758 76.0781 103.276 76.1562 102.719 76.1562ZM111.234 67.5469V68.6562H106.664V67.5469H111.234ZM108.211 65.4922H109.656V73.9062C109.656 74.1927 109.701 74.4089 109.789 74.5547C109.878 74.7005 109.992 74.7969 110.133 74.8438C110.273 74.8906 110.424 74.9141 110.586 74.9141C110.706 74.9141 110.831 74.9036 110.961 74.8828C111.096 74.8568 111.198 74.8359 111.266 74.8203L111.273 76C111.159 76.0365 111.008 76.0703 110.82 76.1016C110.638 76.138 110.417 76.1562 110.156 76.1562C109.802 76.1562 109.477 76.0859 109.18 75.9453C108.883 75.8047 108.646 75.5703 108.469 75.2422C108.297 74.9089 108.211 74.4609 108.211 73.8984V65.4922ZM117.852 73.7578C117.852 73.5495 117.805 73.3568 117.711 73.1797C117.622 72.9974 117.438 72.8333 117.156 72.6875C116.88 72.5365 116.464 72.4062 115.906 72.2969C115.438 72.1979 115.013 72.0807 114.633 71.9453C114.258 71.8099 113.938 71.6458 113.672 71.4531C113.411 71.2604 113.211 71.0339 113.07 70.7734C112.93 70.513 112.859 70.2083 112.859 69.8594C112.859 69.526 112.932 69.2109 113.078 68.9141C113.229 68.6172 113.44 68.3542 113.711 68.125C113.987 67.8958 114.318 67.7161 114.703 67.5859C115.089 67.4557 115.518 67.3906 115.992 67.3906C116.669 67.3906 117.247 67.5104 117.727 67.75C118.206 67.9896 118.573 68.3099 118.828 68.7109C119.083 69.1068 119.211 69.5469 119.211 70.0312H117.766C117.766 69.7969 117.695 69.5703 117.555 69.3516C117.419 69.1276 117.219 68.9427 116.953 68.7969C116.693 68.651 116.372 68.5781 115.992 68.5781C115.591 68.5781 115.266 68.6406 115.016 68.7656C114.771 68.8854 114.591 69.0391 114.477 69.2266C114.367 69.4141 114.312 69.612 114.312 69.8203C114.312 69.9766 114.339 70.1172 114.391 70.2422C114.448 70.362 114.547 70.474 114.688 70.5781C114.828 70.6771 115.026 70.7708 115.281 70.8594C115.536 70.9479 115.862 71.0365 116.258 71.125C116.951 71.2812 117.521 71.4688 117.969 71.6875C118.417 71.9062 118.75 72.1745 118.969 72.4922C119.188 72.8099 119.297 73.1953 119.297 73.6484C119.297 74.0182 119.219 74.3568 119.062 74.6641C118.911 74.9714 118.69 75.237 118.398 75.4609C118.112 75.6797 117.768 75.8516 117.367 75.9766C116.971 76.0964 116.526 76.1562 116.031 76.1562C115.286 76.1562 114.656 76.0234 114.141 75.7578C113.625 75.4922 113.234 75.1484 112.969 74.7266C112.703 74.3047 112.57 73.8594 112.57 73.3906H114.023C114.044 73.7865 114.159 74.1016 114.367 74.3359C114.576 74.5651 114.831 74.7292 115.133 74.8281C115.435 74.9219 115.734 74.9688 116.031 74.9688C116.427 74.9688 116.758 74.9167 117.023 74.8125C117.294 74.7083 117.5 74.5651 117.641 74.3828C117.781 74.2005 117.852 73.9922 117.852 73.7578Z" fill="#152F40"/>
<rect x="8" y="113" width="167" height="31" rx="4" fill="white"/>
<path d="M49.9922 131.273L53.3438 121.625H54.9766L50.7656 133H49.6016L49.9922 131.273ZM46.8594 121.625L50.1797 131.273L50.5938 133H49.4297L45.2266 121.625H46.8594ZM57.8594 124.547V133H56.4062V124.547H57.8594ZM56.2969 122.305C56.2969 122.07 56.3672 121.872 56.5078 121.711C56.6536 121.549 56.8672 121.469 57.1484 121.469C57.4245 121.469 57.6354 121.549 57.7812 121.711C57.9323 121.872 58.0078 122.07 58.0078 122.305C58.0078 122.529 57.9323 122.721 57.7812 122.883C57.6354 123.039 57.4245 123.117 57.1484 123.117C56.8672 123.117 56.6536 123.039 56.5078 122.883C56.3672 122.721 56.2969 122.529 56.2969 122.305ZM63.6875 133.156C63.099 133.156 62.5651 133.057 62.0859 132.859C61.612 132.656 61.2031 132.372 60.8594 132.008C60.5208 131.643 60.2604 131.211 60.0781 130.711C59.8958 130.211 59.8047 129.664 59.8047 129.07V128.742C59.8047 128.055 59.9062 127.443 60.1094 126.906C60.3125 126.365 60.5885 125.906 60.9375 125.531C61.2865 125.156 61.6823 124.872 62.125 124.68C62.5677 124.487 63.026 124.391 63.5 124.391C64.1042 124.391 64.625 124.495 65.0625 124.703C65.5052 124.911 65.8672 125.203 66.1484 125.578C66.4297 125.948 66.638 126.385 66.7734 126.891C66.9089 127.391 66.9766 127.938 66.9766 128.531V129.18H60.6641V128H65.5312V127.891C65.5104 127.516 65.4323 127.151 65.2969 126.797C65.1667 126.443 64.9583 126.151 64.6719 125.922C64.3854 125.693 63.9948 125.578 63.5 125.578C63.1719 125.578 62.8698 125.648 62.5938 125.789C62.3177 125.924 62.0807 126.128 61.8828 126.398C61.6849 126.669 61.5312 127 61.4219 127.391C61.3125 127.781 61.2578 128.232 61.2578 128.742V129.07C61.2578 129.471 61.3125 129.849 61.4219 130.203C61.5365 130.552 61.7005 130.859 61.9141 131.125C62.1328 131.391 62.3958 131.599 62.7031 131.75C63.0156 131.901 63.3698 131.977 63.7656 131.977C64.276 131.977 64.7083 131.872 65.0625 131.664C65.4167 131.456 65.7266 131.177 65.9922 130.828L66.8672 131.523C66.6849 131.799 66.4531 132.062 66.1719 132.312C65.8906 132.562 65.5443 132.766 65.1328 132.922C64.7266 133.078 64.2448 133.156 63.6875 133.156ZM70.8047 131.5L72.9766 124.547H73.9297L73.7422 125.93L71.5312 133H70.6016L70.8047 131.5ZM69.3438 124.547L71.1953 131.578L71.3281 133H70.3516L67.8984 124.547H69.3438ZM76.0078 131.523L77.7734 124.547H79.2109L76.7578 133H75.7891L76.0078 131.523ZM74.1406 124.547L76.2656 131.383L76.5078 133H75.5859L73.3125 125.914L73.125 124.547H74.1406ZM85.3594 121.625H86.8203L90.5469 130.898L94.2656 121.625H95.7344L91.1094 133H89.9688L85.3594 121.625ZM84.8828 121.625H86.1719L86.3828 128.562V133H84.8828V121.625ZM94.9141 121.625H96.2031V133H94.7031V128.562L94.9141 121.625ZM98.25 128.867V128.688C98.25 128.078 98.3385 127.513 98.5156 126.992C98.6927 126.466 98.9479 126.01 99.2812 125.625C99.6146 125.234 100.018 124.932 100.492 124.719C100.966 124.5 101.497 124.391 102.086 124.391C102.68 124.391 103.214 124.5 103.688 124.719C104.167 124.932 104.573 125.234 104.906 125.625C105.245 126.01 105.503 126.466 105.68 126.992C105.857 127.513 105.945 128.078 105.945 128.688V128.867C105.945 129.477 105.857 130.042 105.68 130.562C105.503 131.083 105.245 131.539 104.906 131.93C104.573 132.315 104.169 132.617 103.695 132.836C103.227 133.049 102.695 133.156 102.102 133.156C101.508 133.156 100.974 133.049 100.5 132.836C100.026 132.617 99.6198 132.315 99.2812 131.93C98.9479 131.539 98.6927 131.083 98.5156 130.562C98.3385 130.042 98.25 129.477 98.25 128.867ZM99.6953 128.688V128.867C99.6953 129.289 99.7448 129.688 99.8438 130.062C99.9427 130.432 100.091 130.76 100.289 131.047C100.492 131.333 100.745 131.56 101.047 131.727C101.349 131.888 101.701 131.969 102.102 131.969C102.497 131.969 102.844 131.888 103.141 131.727C103.443 131.56 103.693 131.333 103.891 131.047C104.089 130.76 104.237 130.432 104.336 130.062C104.44 129.688 104.492 129.289 104.492 128.867V128.688C104.492 128.271 104.44 127.878 104.336 127.508C104.237 127.133 104.086 126.802 103.883 126.516C103.685 126.224 103.435 125.995 103.133 125.828C102.836 125.661 102.487 125.578 102.086 125.578C101.69 125.578 101.341 125.661 101.039 125.828C100.742 125.995 100.492 126.224 100.289 126.516C100.091 126.802 99.9427 127.133 99.8438 127.508C99.7448 127.878 99.6953 128.271 99.6953 128.688ZM113.086 131.359V121H114.539V133H113.211L113.086 131.359ZM107.398 128.867V128.703C107.398 128.057 107.477 127.471 107.633 126.945C107.794 126.414 108.021 125.958 108.312 125.578C108.609 125.198 108.961 124.906 109.367 124.703C109.779 124.495 110.237 124.391 110.742 124.391C111.273 124.391 111.737 124.484 112.133 124.672C112.534 124.854 112.872 125.122 113.148 125.477C113.43 125.826 113.651 126.247 113.812 126.742C113.974 127.237 114.086 127.797 114.148 128.422V129.141C114.091 129.76 113.979 130.318 113.812 130.812C113.651 131.307 113.43 131.729 113.148 132.078C112.872 132.427 112.534 132.695 112.133 132.883C111.732 133.065 111.263 133.156 110.727 133.156C110.232 133.156 109.779 133.049 109.367 132.836C108.961 132.622 108.609 132.323 108.312 131.938C108.021 131.552 107.794 131.099 107.633 130.578C107.477 130.052 107.398 129.482 107.398 128.867ZM108.852 128.703V128.867C108.852 129.289 108.893 129.685 108.977 130.055C109.065 130.424 109.201 130.75 109.383 131.031C109.565 131.312 109.797 131.534 110.078 131.695C110.359 131.852 110.695 131.93 111.086 131.93C111.565 131.93 111.958 131.828 112.266 131.625C112.578 131.422 112.828 131.154 113.016 130.82C113.203 130.487 113.349 130.125 113.453 129.734V127.852C113.391 127.565 113.299 127.289 113.18 127.023C113.065 126.753 112.914 126.513 112.727 126.305C112.544 126.091 112.318 125.922 112.047 125.797C111.781 125.672 111.466 125.609 111.102 125.609C110.706 125.609 110.365 125.693 110.078 125.859C109.797 126.021 109.565 126.245 109.383 126.531C109.201 126.812 109.065 127.141 108.977 127.516C108.893 127.885 108.852 128.281 108.852 128.703ZM120.297 133.156C119.708 133.156 119.174 133.057 118.695 132.859C118.221 132.656 117.812 132.372 117.469 132.008C117.13 131.643 116.87 131.211 116.688 130.711C116.505 130.211 116.414 129.664 116.414 129.07V128.742C116.414 128.055 116.516 127.443 116.719 126.906C116.922 126.365 117.198 125.906 117.547 125.531C117.896 125.156 118.292 124.872 118.734 124.68C119.177 124.487 119.635 124.391 120.109 124.391C120.714 124.391 121.234 124.495 121.672 124.703C122.115 124.911 122.477 125.203 122.758 125.578C123.039 125.948 123.247 126.385 123.383 126.891C123.518 127.391 123.586 127.938 123.586 128.531V129.18H117.273V128H122.141V127.891C122.12 127.516 122.042 127.151 121.906 126.797C121.776 126.443 121.568 126.151 121.281 125.922C120.995 125.693 120.604 125.578 120.109 125.578C119.781 125.578 119.479 125.648 119.203 125.789C118.927 125.924 118.69 126.128 118.492 126.398C118.294 126.669 118.141 127 118.031 127.391C117.922 127.781 117.867 128.232 117.867 128.742V129.07C117.867 129.471 117.922 129.849 118.031 130.203C118.146 130.552 118.31 130.859 118.523 131.125C118.742 131.391 119.005 131.599 119.312 131.75C119.625 131.901 119.979 131.977 120.375 131.977C120.885 131.977 121.318 131.872 121.672 131.664C122.026 131.456 122.336 131.177 122.602 130.828L123.477 131.523C123.294 131.799 123.062 132.062 122.781 132.312C122.5 132.562 122.154 132.766 121.742 132.922C121.336 133.078 120.854 133.156 120.297 133.156ZM126.844 121V133H125.391V121H126.844ZM134.086 130.758C134.086 130.549 134.039 130.357 133.945 130.18C133.857 129.997 133.672 129.833 133.391 129.688C133.115 129.536 132.698 129.406 132.141 129.297C131.672 129.198 131.247 129.081 130.867 128.945C130.492 128.81 130.172 128.646 129.906 128.453C129.646 128.26 129.445 128.034 129.305 127.773C129.164 127.513 129.094 127.208 129.094 126.859C129.094 126.526 129.167 126.211 129.312 125.914C129.464 125.617 129.674 125.354 129.945 125.125C130.221 124.896 130.552 124.716 130.938 124.586C131.323 124.456 131.753 124.391 132.227 124.391C132.904 124.391 133.482 124.51 133.961 124.75C134.44 124.99 134.807 125.31 135.062 125.711C135.318 126.107 135.445 126.547 135.445 127.031H134C134 126.797 133.93 126.57 133.789 126.352C133.654 126.128 133.453 125.943 133.188 125.797C132.927 125.651 132.607 125.578 132.227 125.578C131.826 125.578 131.5 125.641 131.25 125.766C131.005 125.885 130.826 126.039 130.711 126.227C130.602 126.414 130.547 126.612 130.547 126.82C130.547 126.977 130.573 127.117 130.625 127.242C130.682 127.362 130.781 127.474 130.922 127.578C131.062 127.677 131.26 127.771 131.516 127.859C131.771 127.948 132.096 128.036 132.492 128.125C133.185 128.281 133.755 128.469 134.203 128.688C134.651 128.906 134.984 129.174 135.203 129.492C135.422 129.81 135.531 130.195 135.531 130.648C135.531 131.018 135.453 131.357 135.297 131.664C135.146 131.971 134.924 132.237 134.633 132.461C134.346 132.68 134.003 132.852 133.602 132.977C133.206 133.096 132.76 133.156 132.266 133.156C131.521 133.156 130.891 133.023 130.375 132.758C129.859 132.492 129.469 132.148 129.203 131.727C128.938 131.305 128.805 130.859 128.805 130.391H130.258C130.279 130.786 130.393 131.102 130.602 131.336C130.81 131.565 131.065 131.729 131.367 131.828C131.669 131.922 131.969 131.969 132.266 131.969C132.661 131.969 132.992 131.917 133.258 131.812C133.529 131.708 133.734 131.565 133.875 131.383C134.016 131.201 134.086 130.992 134.086 130.758Z" fill="#152F40"/>
<path d="M89.9393 112.061C90.5251 112.646 91.4749 112.646 92.0607 112.061L101.607 102.515C102.192 101.929 102.192 100.979 101.607 100.393C101.021 99.8076 100.071 99.8076 99.4853 100.393L91 108.879L82.5147 100.393C81.9289 99.8076 80.9792 99.8076 80.3934 100.393C79.8076 100.979 79.8076 101.929 80.3934 102.515L89.9393 112.061ZM89.5 87V111H92.5V87H89.5Z" fill="#152F40"/>
<rect y="190" width="184" height="160" rx="8" fill="#152F40"/>
<path d="M12.4609 223H10.0312L10.0469 221.445H12.4609C13.1641 221.445 13.7526 221.292 14.2266 220.984C14.7057 220.677 15.0651 220.237 15.3047 219.664C15.5495 219.091 15.6719 218.409 15.6719 217.617V217C15.6719 216.385 15.6016 215.841 15.4609 215.367C15.3255 214.893 15.1224 214.495 14.8516 214.172C14.5859 213.849 14.2578 213.604 13.8672 213.438C13.4818 213.271 13.0365 213.188 12.5312 213.188H9.98438V211.625H12.5312C13.2865 211.625 13.9766 211.753 14.6016 212.008C15.2266 212.258 15.7656 212.62 16.2188 213.094C16.6771 213.568 17.0286 214.135 17.2734 214.797C17.5182 215.458 17.6406 216.198 17.6406 217.016V217.617C17.6406 218.435 17.5182 219.174 17.2734 219.836C17.0286 220.497 16.6771 221.065 16.2188 221.539C15.7604 222.008 15.2135 222.37 14.5781 222.625C13.9479 222.875 13.2422 223 12.4609 223ZM11.1172 211.625V223H9.15625V211.625H11.1172ZM24.1875 221.305V217.273C24.1875 216.971 24.1328 216.711 24.0234 216.492C23.9141 216.273 23.7474 216.104 23.5234 215.984C23.3047 215.865 23.0286 215.805 22.6953 215.805C22.388 215.805 22.1224 215.857 21.8984 215.961C21.6745 216.065 21.5 216.206 21.375 216.383C21.25 216.56 21.1875 216.76 21.1875 216.984H19.3125C19.3125 216.651 19.3932 216.328 19.5547 216.016C19.7161 215.703 19.9505 215.424 20.2578 215.18C20.5651 214.935 20.9323 214.742 21.3594 214.602C21.7865 214.461 22.2656 214.391 22.7969 214.391C23.4323 214.391 23.9948 214.497 24.4844 214.711C24.9792 214.924 25.3672 215.247 25.6484 215.68C25.9349 216.107 26.0781 216.643 26.0781 217.289V221.047C26.0781 221.432 26.1042 221.779 26.1562 222.086C26.2135 222.388 26.2943 222.651 26.3984 222.875V223H24.4688C24.3802 222.797 24.3099 222.539 24.2578 222.227C24.2109 221.909 24.1875 221.602 24.1875 221.305ZM24.4609 217.859L24.4766 219.023H23.125C22.776 219.023 22.4688 219.057 22.2031 219.125C21.9375 219.188 21.7161 219.281 21.5391 219.406C21.362 219.531 21.2292 219.682 21.1406 219.859C21.0521 220.036 21.0078 220.237 21.0078 220.461C21.0078 220.685 21.0599 220.891 21.1641 221.078C21.2682 221.26 21.4193 221.404 21.6172 221.508C21.8203 221.612 22.0651 221.664 22.3516 221.664C22.737 221.664 23.0729 221.586 23.3594 221.43C23.651 221.268 23.8802 221.073 24.0469 220.844C24.2135 220.609 24.3021 220.388 24.3125 220.18L24.9219 221.016C24.8594 221.229 24.7526 221.458 24.6016 221.703C24.4505 221.948 24.2526 222.182 24.0078 222.406C23.7682 222.625 23.4792 222.805 23.1406 222.945C22.8073 223.086 22.4219 223.156 21.9844 223.156C21.4323 223.156 20.9401 223.047 20.5078 222.828C20.0755 222.604 19.737 222.305 19.4922 221.93C19.2474 221.549 19.125 221.12 19.125 220.641C19.125 220.193 19.2083 219.797 19.375 219.453C19.5469 219.104 19.7969 218.812 20.125 218.578C20.4583 218.344 20.8646 218.167 21.3438 218.047C21.8229 217.922 22.3698 217.859 22.9844 217.859H24.4609ZM31.9219 214.547V215.922H27.1562V214.547H31.9219ZM28.5312 212.477H30.4141V220.664C30.4141 220.924 30.4505 221.125 30.5234 221.266C30.6016 221.401 30.7083 221.492 30.8438 221.539C30.9792 221.586 31.138 221.609 31.3203 221.609C31.4505 221.609 31.5755 221.602 31.6953 221.586C31.8151 221.57 31.9115 221.555 31.9844 221.539L31.9922 222.977C31.8359 223.023 31.6536 223.065 31.4453 223.102C31.2422 223.138 31.0078 223.156 30.7422 223.156C30.3099 223.156 29.9271 223.081 29.5938 222.93C29.2604 222.773 29 222.521 28.8125 222.172C28.625 221.823 28.5312 221.359 28.5312 220.781V212.477ZM38.1406 221.305V217.273C38.1406 216.971 38.0859 216.711 37.9766 216.492C37.8672 216.273 37.7005 216.104 37.4766 215.984C37.2578 215.865 36.9818 215.805 36.6484 215.805C36.3411 215.805 36.0755 215.857 35.8516 215.961C35.6276 216.065 35.4531 216.206 35.3281 216.383C35.2031 216.56 35.1406 216.76 35.1406 216.984H33.2656C33.2656 216.651 33.3464 216.328 33.5078 216.016C33.6693 215.703 33.9036 215.424 34.2109 215.18C34.5182 214.935 34.8854 214.742 35.3125 214.602C35.7396 214.461 36.2188 214.391 36.75 214.391C37.3854 214.391 37.9479 214.497 38.4375 214.711C38.9323 214.924 39.3203 215.247 39.6016 215.68C39.888 216.107 40.0312 216.643 40.0312 217.289V221.047C40.0312 221.432 40.0573 221.779 40.1094 222.086C40.1667 222.388 40.2474 222.651 40.3516 222.875V223H38.4219C38.3333 222.797 38.263 222.539 38.2109 222.227C38.1641 221.909 38.1406 221.602 38.1406 221.305ZM38.4141 217.859L38.4297 219.023H37.0781C36.7292 219.023 36.4219 219.057 36.1562 219.125C35.8906 219.188 35.6693 219.281 35.4922 219.406C35.3151 219.531 35.1823 219.682 35.0938 219.859C35.0052 220.036 34.9609 220.237 34.9609 220.461C34.9609 220.685 35.013 220.891 35.1172 221.078C35.2214 221.26 35.3724 221.404 35.5703 221.508C35.7734 221.612 36.0182 221.664 36.3047 221.664C36.6901 221.664 37.026 221.586 37.3125 221.43C37.6042 221.268 37.8333 221.073 38 220.844C38.1667 220.609 38.2552 220.388 38.2656 220.18L38.875 221.016C38.8125 221.229 38.7057 221.458 38.5547 221.703C38.4036 221.948 38.2057 222.182 37.9609 222.406C37.7214 222.625 37.4323 222.805 37.0938 222.945C36.7604 223.086 36.375 223.156 35.9375 223.156C35.3854 223.156 34.8932 223.047 34.4609 222.828C34.0286 222.604 33.6901 222.305 33.4453 221.93C33.2005 221.549 33.0781 221.12 33.0781 220.641C33.0781 220.193 33.1615 219.797 33.3281 219.453C33.5 219.104 33.75 218.812 34.0781 218.578C34.4115 218.344 34.8177 218.167 35.2969 218.047C35.776 217.922 36.3229 217.859 36.9375 217.859H38.4141ZM53.2969 221.445V223H47.5859V221.445H53.2969ZM48.1328 211.625V223H46.1719V211.625H48.1328ZM59.3906 221.305V217.273C59.3906 216.971 59.3359 216.711 59.2266 216.492C59.1172 216.273 58.9505 216.104 58.7266 215.984C58.5078 215.865 58.2318 215.805 57.8984 215.805C57.5911 215.805 57.3255 215.857 57.1016 215.961C56.8776 216.065 56.7031 216.206 56.5781 216.383C56.4531 216.56 56.3906 216.76 56.3906 216.984H54.5156C54.5156 216.651 54.5964 216.328 54.7578 216.016C54.9193 215.703 55.1536 215.424 55.4609 215.18C55.7682 214.935 56.1354 214.742 56.5625 214.602C56.9896 214.461 57.4688 214.391 58 214.391C58.6354 214.391 59.1979 214.497 59.6875 214.711C60.1823 214.924 60.5703 215.247 60.8516 215.68C61.138 216.107 61.2812 216.643 61.2812 217.289V221.047C61.2812 221.432 61.3073 221.779 61.3594 222.086C61.4167 222.388 61.4974 222.651 61.6016 222.875V223H59.6719C59.5833 222.797 59.513 222.539 59.4609 222.227C59.4141 221.909 59.3906 221.602 59.3906 221.305ZM59.6641 217.859L59.6797 219.023H58.3281C57.9792 219.023 57.6719 219.057 57.4062 219.125C57.1406 219.188 56.9193 219.281 56.7422 219.406C56.5651 219.531 56.4323 219.682 56.3438 219.859C56.2552 220.036 56.2109 220.237 56.2109 220.461C56.2109 220.685 56.263 220.891 56.3672 221.078C56.4714 221.26 56.6224 221.404 56.8203 221.508C57.0234 221.612 57.2682 221.664 57.5547 221.664C57.9401 221.664 58.276 221.586 58.5625 221.43C58.8542 221.268 59.0833 221.073 59.25 220.844C59.4167 220.609 59.5052 220.388 59.5156 220.18L60.125 221.016C60.0625 221.229 59.9557 221.458 59.8047 221.703C59.6536 221.948 59.4557 222.182 59.2109 222.406C58.9714 222.625 58.6823 222.805 58.3438 222.945C58.0104 223.086 57.625 223.156 57.1875 223.156C56.6354 223.156 56.1432 223.047 55.7109 222.828C55.2786 222.604 54.9401 222.305 54.6953 221.93C54.4505 221.549 54.3281 221.12 54.3281 220.641C54.3281 220.193 54.4115 219.797 54.5781 219.453C54.75 219.104 55 218.812 55.3281 218.578C55.6615 218.344 56.0677 218.167 56.5469 218.047C57.026 217.922 57.5729 217.859 58.1875 217.859H59.6641ZM65.5781 222.078L67.875 214.547H69.8906L66.5 224.289C66.4219 224.497 66.3203 224.724 66.1953 224.969C66.0703 225.214 65.9062 225.445 65.7031 225.664C65.5052 225.888 65.2578 226.068 64.9609 226.203C64.6641 226.344 64.3047 226.414 63.8828 226.414C63.7161 226.414 63.5547 226.398 63.3984 226.367C63.2474 226.341 63.1042 226.312 62.9688 226.281L62.9609 224.844C63.013 224.849 63.0755 224.854 63.1484 224.859C63.2266 224.865 63.2891 224.867 63.3359 224.867C63.6484 224.867 63.9089 224.828 64.1172 224.75C64.3255 224.677 64.4948 224.557 64.625 224.391C64.7604 224.224 64.875 224 64.9688 223.719L65.5781 222.078ZM64.2812 214.547L66.2891 220.875L66.625 222.859L65.3203 223.195L62.25 214.547H64.2812ZM74.5859 223.156C73.9609 223.156 73.3958 223.055 72.8906 222.852C72.3906 222.643 71.9635 222.354 71.6094 221.984C71.2604 221.615 70.9922 221.18 70.8047 220.68C70.6172 220.18 70.5234 219.641 70.5234 219.062V218.75C70.5234 218.089 70.6198 217.49 70.8125 216.953C71.0052 216.417 71.2734 215.958 71.6172 215.578C71.9609 215.193 72.3672 214.898 72.8359 214.695C73.3047 214.492 73.8125 214.391 74.3594 214.391C74.9635 214.391 75.4922 214.492 75.9453 214.695C76.3984 214.898 76.7734 215.185 77.0703 215.555C77.3724 215.919 77.5964 216.354 77.7422 216.859C77.8932 217.365 77.9688 217.922 77.9688 218.531V219.336H71.4375V217.984H76.1094V217.836C76.099 217.497 76.0312 217.18 75.9062 216.883C75.7865 216.586 75.6016 216.346 75.3516 216.164C75.1016 215.982 74.7682 215.891 74.3516 215.891C74.0391 215.891 73.7604 215.958 73.5156 216.094C73.276 216.224 73.0755 216.414 72.9141 216.664C72.7526 216.914 72.6276 217.216 72.5391 217.57C72.4557 217.919 72.4141 218.312 72.4141 218.75V219.062C72.4141 219.432 72.4635 219.776 72.5625 220.094C72.6667 220.406 72.8177 220.68 73.0156 220.914C73.2135 221.148 73.4531 221.333 73.7344 221.469C74.0156 221.599 74.3359 221.664 74.6953 221.664C75.1484 221.664 75.5521 221.573 75.9062 221.391C76.2604 221.208 76.5677 220.951 76.8281 220.617L77.8203 221.578C77.638 221.844 77.401 222.099 77.1094 222.344C76.8177 222.583 76.4609 222.779 76.0391 222.93C75.6224 223.081 75.138 223.156 74.5859 223.156ZM81.3281 216.156V223H79.4453V214.547H81.2422L81.3281 216.156ZM83.9141 214.492L83.8984 216.242C83.7839 216.221 83.6589 216.206 83.5234 216.195C83.3932 216.185 83.263 216.18 83.1328 216.18C82.8099 216.18 82.526 216.227 82.2812 216.32C82.0365 216.409 81.8307 216.539 81.6641 216.711C81.5026 216.878 81.3776 217.081 81.2891 217.32C81.2005 217.56 81.1484 217.828 81.1328 218.125L80.7031 218.156C80.7031 217.625 80.7552 217.133 80.8594 216.68C80.9635 216.227 81.1198 215.828 81.3281 215.484C81.5417 215.141 81.8073 214.872 82.125 214.68C82.4479 214.487 82.8203 214.391 83.2422 214.391C83.3568 214.391 83.4792 214.401 83.6094 214.422C83.7448 214.443 83.8464 214.466 83.9141 214.492Z" fill="white"/>
<rect x="8" y="246" width="167" height="31" rx="4" fill="white"/>
<path d="M48.3203 254.625H52.0859C52.9401 254.625 53.6615 254.755 54.25 255.016C54.8438 255.276 55.2943 255.661 55.6016 256.172C55.9141 256.677 56.0703 257.299 56.0703 258.039C56.0703 258.56 55.9635 259.036 55.75 259.469C55.5417 259.896 55.2396 260.26 54.8438 260.562C54.4531 260.859 53.9844 261.081 53.4375 261.227L53.0156 261.391H49.4766L49.4609 260.164H52.1328C52.6745 260.164 53.125 260.07 53.4844 259.883C53.8438 259.69 54.1146 259.432 54.2969 259.109C54.4792 258.786 54.5703 258.43 54.5703 258.039C54.5703 257.602 54.4844 257.219 54.3125 256.891C54.1406 256.562 53.8698 256.31 53.5 256.133C53.1354 255.951 52.6641 255.859 52.0859 255.859H49.8281V266H48.3203V254.625ZM54.9688 266L52.2031 260.844L53.7734 260.836L56.5781 265.906V266H54.9688ZM61.4688 266.156C60.8802 266.156 60.3464 266.057 59.8672 265.859C59.3932 265.656 58.9844 265.372 58.6406 265.008C58.3021 264.643 58.0417 264.211 57.8594 263.711C57.6771 263.211 57.5859 262.664 57.5859 262.07V261.742C57.5859 261.055 57.6875 260.443 57.8906 259.906C58.0938 259.365 58.3698 258.906 58.7188 258.531C59.0677 258.156 59.4635 257.872 59.9062 257.68C60.349 257.487 60.8073 257.391 61.2812 257.391C61.8854 257.391 62.4062 257.495 62.8438 257.703C63.2865 257.911 63.6484 258.203 63.9297 258.578C64.2109 258.948 64.4193 259.385 64.5547 259.891C64.6901 260.391 64.7578 260.938 64.7578 261.531V262.18H58.4453V261H63.3125V260.891C63.2917 260.516 63.2135 260.151 63.0781 259.797C62.9479 259.443 62.7396 259.151 62.4531 258.922C62.1667 258.693 61.776 258.578 61.2812 258.578C60.9531 258.578 60.651 258.648 60.375 258.789C60.099 258.924 59.862 259.128 59.6641 259.398C59.4661 259.669 59.3125 260 59.2031 260.391C59.0938 260.781 59.0391 261.232 59.0391 261.742V262.07C59.0391 262.471 59.0938 262.849 59.2031 263.203C59.3177 263.552 59.4818 263.859 59.6953 264.125C59.9141 264.391 60.1771 264.599 60.4844 264.75C60.7969 264.901 61.151 264.977 61.5469 264.977C62.0573 264.977 62.4896 264.872 62.8438 264.664C63.1979 264.456 63.5078 264.177 63.7734 263.828L64.6484 264.523C64.4661 264.799 64.2344 265.062 63.9531 265.312C63.6719 265.562 63.3255 265.766 62.9141 265.922C62.5078 266.078 62.026 266.156 61.4688 266.156ZM67.8906 259.172V269.25H66.4375V257.547H67.7656L67.8906 259.172ZM73.5859 261.703V261.867C73.5859 262.482 73.513 263.052 73.3672 263.578C73.2214 264.099 73.0078 264.552 72.7266 264.938C72.4505 265.323 72.1094 265.622 71.7031 265.836C71.2969 266.049 70.8307 266.156 70.3047 266.156C69.7682 266.156 69.2943 266.068 68.8828 265.891C68.4714 265.714 68.1224 265.456 67.8359 265.117C67.5495 264.779 67.3203 264.372 67.1484 263.898C66.9818 263.424 66.8672 262.891 66.8047 262.297V261.422C66.8672 260.797 66.9844 260.237 67.1562 259.742C67.3281 259.247 67.5547 258.826 67.8359 258.477C68.1224 258.122 68.4688 257.854 68.875 257.672C69.2812 257.484 69.75 257.391 70.2812 257.391C70.8125 257.391 71.2839 257.495 71.6953 257.703C72.1068 257.906 72.4531 258.198 72.7344 258.578C73.0156 258.958 73.2266 259.414 73.3672 259.945C73.513 260.471 73.5859 261.057 73.5859 261.703ZM72.1328 261.867V261.703C72.1328 261.281 72.0885 260.885 72 260.516C71.9115 260.141 71.7734 259.812 71.5859 259.531C71.4036 259.245 71.1693 259.021 70.8828 258.859C70.5964 258.693 70.2552 258.609 69.8594 258.609C69.4948 258.609 69.1771 258.672 68.9062 258.797C68.6406 258.922 68.4141 259.091 68.2266 259.305C68.0391 259.513 67.8854 259.753 67.7656 260.023C67.651 260.289 67.5651 260.565 67.5078 260.852V262.875C67.612 263.24 67.7578 263.583 67.9453 263.906C68.1328 264.224 68.3828 264.482 68.6953 264.68C69.0078 264.872 69.401 264.969 69.875 264.969C70.2656 264.969 70.6016 264.888 70.8828 264.727C71.1693 264.56 71.4036 264.333 71.5859 264.047C71.7734 263.76 71.9115 263.432 72 263.062C72.0885 262.688 72.1328 262.289 72.1328 261.867ZM75.0469 261.867V261.688C75.0469 261.078 75.1354 260.513 75.3125 259.992C75.4896 259.466 75.7448 259.01 76.0781 258.625C76.4115 258.234 76.8151 257.932 77.2891 257.719C77.763 257.5 78.2943 257.391 78.8828 257.391C79.4766 257.391 80.0104 257.5 80.4844 257.719C80.9635 257.932 81.3698 258.234 81.7031 258.625C82.0417 259.01 82.2995 259.466 82.4766 259.992C82.6536 260.513 82.7422 261.078 82.7422 261.688V261.867C82.7422 262.477 82.6536 263.042 82.4766 263.562C82.2995 264.083 82.0417 264.539 81.7031 264.93C81.3698 265.315 80.9661 265.617 80.4922 265.836C80.0234 266.049 79.4922 266.156 78.8984 266.156C78.3047 266.156 77.7708 266.049 77.2969 265.836C76.8229 265.617 76.4167 265.315 76.0781 264.93C75.7448 264.539 75.4896 264.083 75.3125 263.562C75.1354 263.042 75.0469 262.477 75.0469 261.867ZM76.4922 261.688V261.867C76.4922 262.289 76.5417 262.688 76.6406 263.062C76.7396 263.432 76.888 263.76 77.0859 264.047C77.2891 264.333 77.5417 264.56 77.8438 264.727C78.1458 264.888 78.4974 264.969 78.8984 264.969C79.2943 264.969 79.6406 264.888 79.9375 264.727C80.2396 264.56 80.4896 264.333 80.6875 264.047C80.8854 263.76 81.0339 263.432 81.1328 263.062C81.237 262.688 81.2891 262.289 81.2891 261.867V261.688C81.2891 261.271 81.237 260.878 81.1328 260.508C81.0339 260.133 80.8828 259.802 80.6797 259.516C80.4818 259.224 80.2318 258.995 79.9297 258.828C79.6328 258.661 79.2839 258.578 78.8828 258.578C78.487 258.578 78.138 258.661 77.8359 258.828C77.5391 258.995 77.2891 259.224 77.0859 259.516C76.888 259.802 76.7396 260.133 76.6406 260.508C76.5417 260.878 76.4922 261.271 76.4922 261.688ZM89.4766 263.758C89.4766 263.549 89.4297 263.357 89.3359 263.18C89.2474 262.997 89.0625 262.833 88.7812 262.688C88.5052 262.536 88.0885 262.406 87.5312 262.297C87.0625 262.198 86.638 262.081 86.2578 261.945C85.8828 261.81 85.5625 261.646 85.2969 261.453C85.0365 261.26 84.8359 261.034 84.6953 260.773C84.5547 260.513 84.4844 260.208 84.4844 259.859C84.4844 259.526 84.5573 259.211 84.7031 258.914C84.8542 258.617 85.0651 258.354 85.3359 258.125C85.612 257.896 85.9427 257.716 86.3281 257.586C86.7135 257.456 87.1432 257.391 87.6172 257.391C88.2943 257.391 88.8724 257.51 89.3516 257.75C89.8307 257.99 90.1979 258.31 90.4531 258.711C90.7083 259.107 90.8359 259.547 90.8359 260.031H89.3906C89.3906 259.797 89.3203 259.57 89.1797 259.352C89.0443 259.128 88.8438 258.943 88.5781 258.797C88.3177 258.651 87.9974 258.578 87.6172 258.578C87.2161 258.578 86.8906 258.641 86.6406 258.766C86.3958 258.885 86.2161 259.039 86.1016 259.227C85.9922 259.414 85.9375 259.612 85.9375 259.82C85.9375 259.977 85.9635 260.117 86.0156 260.242C86.0729 260.362 86.1719 260.474 86.3125 260.578C86.4531 260.677 86.651 260.771 86.9062 260.859C87.1615 260.948 87.487 261.036 87.8828 261.125C88.5755 261.281 89.1458 261.469 89.5938 261.688C90.0417 261.906 90.375 262.174 90.5938 262.492C90.8125 262.81 90.9219 263.195 90.9219 263.648C90.9219 264.018 90.8438 264.357 90.6875 264.664C90.5365 264.971 90.3151 265.237 90.0234 265.461C89.737 265.68 89.3932 265.852 88.9922 265.977C88.5964 266.096 88.151 266.156 87.6562 266.156C86.9115 266.156 86.2812 266.023 85.7656 265.758C85.25 265.492 84.8594 265.148 84.5938 264.727C84.3281 264.305 84.1953 263.859 84.1953 263.391H85.6484C85.6693 263.786 85.7839 264.102 85.9922 264.336C86.2005 264.565 86.4557 264.729 86.7578 264.828C87.0599 264.922 87.3594 264.969 87.6562 264.969C88.0521 264.969 88.3828 264.917 88.6484 264.812C88.9193 264.708 89.125 264.565 89.2656 264.383C89.4062 264.201 89.4766 263.992 89.4766 263.758ZM94.3906 257.547V266H92.9375V257.547H94.3906ZM92.8281 255.305C92.8281 255.07 92.8984 254.872 93.0391 254.711C93.1849 254.549 93.3984 254.469 93.6797 254.469C93.9557 254.469 94.1667 254.549 94.3125 254.711C94.4635 254.872 94.5391 255.07 94.5391 255.305C94.5391 255.529 94.4635 255.721 94.3125 255.883C94.1667 256.039 93.9557 256.117 93.6797 256.117C93.3984 256.117 93.1849 256.039 93.0391 255.883C92.8984 255.721 92.8281 255.529 92.8281 255.305ZM100.25 257.547V258.656H95.6797V257.547H100.25ZM97.2266 255.492H98.6719V263.906C98.6719 264.193 98.7161 264.409 98.8047 264.555C98.8932 264.701 99.0078 264.797 99.1484 264.844C99.2891 264.891 99.4401 264.914 99.6016 264.914C99.7214 264.914 99.8464 264.904 99.9766 264.883C100.112 264.857 100.214 264.836 100.281 264.82L100.289 266C100.174 266.036 100.023 266.07 99.8359 266.102C99.6536 266.138 99.4323 266.156 99.1719 266.156C98.8177 266.156 98.4922 266.086 98.1953 265.945C97.8984 265.805 97.6615 265.57 97.4844 265.242C97.3125 264.909 97.2266 264.461 97.2266 263.898V255.492ZM101.406 261.867V261.688C101.406 261.078 101.495 260.513 101.672 259.992C101.849 259.466 102.104 259.01 102.438 258.625C102.771 258.234 103.174 257.932 103.648 257.719C104.122 257.5 104.654 257.391 105.242 257.391C105.836 257.391 106.37 257.5 106.844 257.719C107.323 257.932 107.729 258.234 108.062 258.625C108.401 259.01 108.659 259.466 108.836 259.992C109.013 260.513 109.102 261.078 109.102 261.688V261.867C109.102 262.477 109.013 263.042 108.836 263.562C108.659 264.083 108.401 264.539 108.062 264.93C107.729 265.315 107.326 265.617 106.852 265.836C106.383 266.049 105.852 266.156 105.258 266.156C104.664 266.156 104.13 266.049 103.656 265.836C103.182 265.617 102.776 265.315 102.438 264.93C102.104 264.539 101.849 264.083 101.672 263.562C101.495 263.042 101.406 262.477 101.406 261.867ZM102.852 261.688V261.867C102.852 262.289 102.901 262.688 103 263.062C103.099 263.432 103.247 263.76 103.445 264.047C103.648 264.333 103.901 264.56 104.203 264.727C104.505 264.888 104.857 264.969 105.258 264.969C105.654 264.969 106 264.888 106.297 264.727C106.599 264.56 106.849 264.333 107.047 264.047C107.245 263.76 107.393 263.432 107.492 263.062C107.596 262.688 107.648 262.289 107.648 261.867V261.688C107.648 261.271 107.596 260.878 107.492 260.508C107.393 260.133 107.242 259.802 107.039 259.516C106.841 259.224 106.591 258.995 106.289 258.828C105.992 258.661 105.643 258.578 105.242 258.578C104.846 258.578 104.497 258.661 104.195 258.828C103.898 258.995 103.648 259.224 103.445 259.516C103.247 259.802 103.099 260.133 103 260.508C102.901 260.878 102.852 261.271 102.852 261.688ZM112.359 258.875V266H110.914V257.547H112.32L112.359 258.875ZM115 257.5L114.992 258.844C114.872 258.818 114.758 258.802 114.648 258.797C114.544 258.786 114.424 258.781 114.289 258.781C113.956 258.781 113.661 258.833 113.406 258.938C113.151 259.042 112.935 259.188 112.758 259.375C112.581 259.562 112.44 259.786 112.336 260.047C112.237 260.302 112.172 260.583 112.141 260.891L111.734 261.125C111.734 260.615 111.784 260.135 111.883 259.688C111.987 259.24 112.146 258.844 112.359 258.5C112.573 258.151 112.844 257.88 113.172 257.688C113.505 257.49 113.901 257.391 114.359 257.391C114.464 257.391 114.583 257.404 114.719 257.43C114.854 257.451 114.948 257.474 115 257.5ZM117.906 257.547V266H116.453V257.547H117.906ZM116.344 255.305C116.344 255.07 116.414 254.872 116.555 254.711C116.701 254.549 116.914 254.469 117.195 254.469C117.471 254.469 117.682 254.549 117.828 254.711C117.979 254.872 118.055 255.07 118.055 255.305C118.055 255.529 117.979 255.721 117.828 255.883C117.682 256.039 117.471 256.117 117.195 256.117C116.914 256.117 116.701 256.039 116.555 255.883C116.414 255.721 116.344 255.529 116.344 255.305ZM123.734 266.156C123.146 266.156 122.612 266.057 122.133 265.859C121.659 265.656 121.25 265.372 120.906 265.008C120.568 264.643 120.307 264.211 120.125 263.711C119.943 263.211 119.852 262.664 119.852 262.07V261.742C119.852 261.055 119.953 260.443 120.156 259.906C120.359 259.365 120.635 258.906 120.984 258.531C121.333 258.156 121.729 257.872 122.172 257.68C122.615 257.487 123.073 257.391 123.547 257.391C124.151 257.391 124.672 257.495 125.109 257.703C125.552 257.911 125.914 258.203 126.195 258.578C126.477 258.948 126.685 259.385 126.82 259.891C126.956 260.391 127.023 260.938 127.023 261.531V262.18H120.711V261H125.578V260.891C125.557 260.516 125.479 260.151 125.344 259.797C125.214 259.443 125.005 259.151 124.719 258.922C124.432 258.693 124.042 258.578 123.547 258.578C123.219 258.578 122.917 258.648 122.641 258.789C122.365 258.924 122.128 259.128 121.93 259.398C121.732 259.669 121.578 260 121.469 260.391C121.359 260.781 121.305 261.232 121.305 261.742V262.07C121.305 262.471 121.359 262.849 121.469 263.203C121.583 263.552 121.747 263.859 121.961 264.125C122.18 264.391 122.443 264.599 122.75 264.75C123.062 264.901 123.417 264.977 123.812 264.977C124.323 264.977 124.755 264.872 125.109 264.664C125.464 264.456 125.773 264.177 126.039 263.828L126.914 264.523C126.732 264.799 126.5 265.062 126.219 265.312C125.938 265.562 125.591 265.766 125.18 265.922C124.773 266.078 124.292 266.156 123.734 266.156ZM133.633 263.758C133.633 263.549 133.586 263.357 133.492 263.18C133.404 262.997 133.219 262.833 132.938 262.688C132.661 262.536 132.245 262.406 131.688 262.297C131.219 262.198 130.794 262.081 130.414 261.945C130.039 261.81 129.719 261.646 129.453 261.453C129.193 261.26 128.992 261.034 128.852 260.773C128.711 260.513 128.641 260.208 128.641 259.859C128.641 259.526 128.714 259.211 128.859 258.914C129.01 258.617 129.221 258.354 129.492 258.125C129.768 257.896 130.099 257.716 130.484 257.586C130.87 257.456 131.299 257.391 131.773 257.391C132.451 257.391 133.029 257.51 133.508 257.75C133.987 257.99 134.354 258.31 134.609 258.711C134.865 259.107 134.992 259.547 134.992 260.031H133.547C133.547 259.797 133.477 259.57 133.336 259.352C133.201 259.128 133 258.943 132.734 258.797C132.474 258.651 132.154 258.578 131.773 258.578C131.372 258.578 131.047 258.641 130.797 258.766C130.552 258.885 130.372 259.039 130.258 259.227C130.148 259.414 130.094 259.612 130.094 259.82C130.094 259.977 130.12 260.117 130.172 260.242C130.229 260.362 130.328 260.474 130.469 260.578C130.609 260.677 130.807 260.771 131.062 260.859C131.318 260.948 131.643 261.036 132.039 261.125C132.732 261.281 133.302 261.469 133.75 261.688C134.198 261.906 134.531 262.174 134.75 262.492C134.969 262.81 135.078 263.195 135.078 263.648C135.078 264.018 135 264.357 134.844 264.664C134.693 264.971 134.471 265.237 134.18 265.461C133.893 265.68 133.549 265.852 133.148 265.977C132.753 266.096 132.307 266.156 131.812 266.156C131.068 266.156 130.438 266.023 129.922 265.758C129.406 265.492 129.016 265.148 128.75 264.727C128.484 264.305 128.352 263.859 128.352 263.391H129.805C129.826 263.786 129.94 264.102 130.148 264.336C130.357 264.565 130.612 264.729 130.914 264.828C131.216 264.922 131.516 264.969 131.812 264.969C132.208 264.969 132.539 264.917 132.805 264.812C133.076 264.708 133.281 264.565 133.422 264.383C133.562 264.201 133.633 263.992 133.633 263.758Z" fill="#152F40"/>
<rect x="8" y="303" width="167" height="31" rx="4" fill="white"/>
<path d="M48.3984 323H46.0234L46.0391 321.773H48.3984C49.2109 321.773 49.888 321.604 50.4297 321.266C50.9714 320.922 51.3776 320.443 51.6484 319.828C51.9245 319.208 52.0625 318.484 52.0625 317.656V316.961C52.0625 316.31 51.9844 315.732 51.8281 315.227C51.6719 314.716 51.4427 314.286 51.1406 313.938C50.8385 313.583 50.4688 313.315 50.0312 313.133C49.599 312.951 49.1016 312.859 48.5391 312.859H45.9766V311.625H48.5391C49.2839 311.625 49.9635 311.75 50.5781 312C51.1927 312.245 51.7214 312.602 52.1641 313.07C52.612 313.534 52.9557 314.096 53.1953 314.758C53.4349 315.414 53.5547 316.154 53.5547 316.977V317.656C53.5547 318.479 53.4349 319.221 53.1953 319.883C52.9557 320.539 52.6094 321.099 52.1562 321.562C51.7083 322.026 51.1667 322.383 50.5312 322.633C49.901 322.878 49.1901 323 48.3984 323ZM46.8281 311.625V323H45.3203V311.625H46.8281ZM60.5859 321.555V317.203C60.5859 316.87 60.5182 316.581 60.3828 316.336C60.2526 316.086 60.0547 315.893 59.7891 315.758C59.5234 315.622 59.1953 315.555 58.8047 315.555C58.4401 315.555 58.1198 315.617 57.8438 315.742C57.5729 315.867 57.3594 316.031 57.2031 316.234C57.0521 316.438 56.9766 316.656 56.9766 316.891H55.5312C55.5312 316.589 55.6094 316.289 55.7656 315.992C55.9219 315.695 56.1458 315.427 56.4375 315.188C56.7344 314.943 57.0885 314.75 57.5 314.609C57.9167 314.464 58.3802 314.391 58.8906 314.391C59.5052 314.391 60.0469 314.495 60.5156 314.703C60.9896 314.911 61.3594 315.227 61.625 315.648C61.8958 316.065 62.0312 316.589 62.0312 317.219V321.156C62.0312 321.438 62.0547 321.737 62.1016 322.055C62.1536 322.372 62.2292 322.646 62.3281 322.875V323H60.8203C60.7474 322.833 60.6901 322.612 60.6484 322.336C60.6068 322.055 60.5859 321.794 60.5859 321.555ZM60.8359 317.875L60.8516 318.891H59.3906C58.9792 318.891 58.612 318.924 58.2891 318.992C57.9661 319.055 57.6953 319.151 57.4766 319.281C57.2578 319.411 57.0911 319.576 56.9766 319.773C56.862 319.966 56.8047 320.193 56.8047 320.453C56.8047 320.719 56.8646 320.961 56.9844 321.18C57.1042 321.398 57.2839 321.573 57.5234 321.703C57.7682 321.828 58.0677 321.891 58.4219 321.891C58.8646 321.891 59.2552 321.797 59.5938 321.609C59.9323 321.422 60.2005 321.193 60.3984 320.922C60.6016 320.651 60.7109 320.388 60.7266 320.133L61.3438 320.828C61.3073 321.047 61.2083 321.289 61.0469 321.555C60.8854 321.82 60.6693 322.076 60.3984 322.32C60.1328 322.56 59.8151 322.76 59.4453 322.922C59.0807 323.078 58.6693 323.156 58.2109 323.156C57.638 323.156 57.1354 323.044 56.7031 322.82C56.276 322.596 55.9427 322.297 55.7031 321.922C55.4688 321.542 55.3516 321.117 55.3516 320.648C55.3516 320.195 55.4401 319.797 55.6172 319.453C55.7943 319.104 56.0495 318.815 56.3828 318.586C56.7161 318.352 57.1172 318.174 57.5859 318.055C58.0547 317.935 58.5781 317.875 59.1562 317.875H60.8359ZM67.8438 314.547V315.656H63.2734V314.547H67.8438ZM64.8203 312.492H66.2656V320.906C66.2656 321.193 66.3099 321.409 66.3984 321.555C66.487 321.701 66.6016 321.797 66.7422 321.844C66.8828 321.891 67.0339 321.914 67.1953 321.914C67.3151 321.914 67.4401 321.904 67.5703 321.883C67.7057 321.857 67.8073 321.836 67.875 321.82L67.8828 323C67.7682 323.036 67.6172 323.07 67.4297 323.102C67.2474 323.138 67.026 323.156 66.7656 323.156C66.4115 323.156 66.0859 323.086 65.7891 322.945C65.4922 322.805 65.2552 322.57 65.0781 322.242C64.9062 321.909 64.8203 321.461 64.8203 320.898V312.492ZM74.5234 321.555V317.203C74.5234 316.87 74.4557 316.581 74.3203 316.336C74.1901 316.086 73.9922 315.893 73.7266 315.758C73.4609 315.622 73.1328 315.555 72.7422 315.555C72.3776 315.555 72.0573 315.617 71.7812 315.742C71.5104 315.867 71.2969 316.031 71.1406 316.234C70.9896 316.438 70.9141 316.656 70.9141 316.891H69.4688C69.4688 316.589 69.5469 316.289 69.7031 315.992C69.8594 315.695 70.0833 315.427 70.375 315.188C70.6719 314.943 71.026 314.75 71.4375 314.609C71.8542 314.464 72.3177 314.391 72.8281 314.391C73.4427 314.391 73.9844 314.495 74.4531 314.703C74.9271 314.911 75.2969 315.227 75.5625 315.648C75.8333 316.065 75.9688 316.589 75.9688 317.219V321.156C75.9688 321.438 75.9922 321.737 76.0391 322.055C76.0911 322.372 76.1667 322.646 76.2656 322.875V323H74.7578C74.6849 322.833 74.6276 322.612 74.5859 322.336C74.5443 322.055 74.5234 321.794 74.5234 321.555ZM74.7734 317.875L74.7891 318.891H73.3281C72.9167 318.891 72.5495 318.924 72.2266 318.992C71.9036 319.055 71.6328 319.151 71.4141 319.281C71.1953 319.411 71.0286 319.576 70.9141 319.773C70.7995 319.966 70.7422 320.193 70.7422 320.453C70.7422 320.719 70.8021 320.961 70.9219 321.18C71.0417 321.398 71.2214 321.573 71.4609 321.703C71.7057 321.828 72.0052 321.891 72.3594 321.891C72.8021 321.891 73.1927 321.797 73.5312 321.609C73.8698 321.422 74.138 321.193 74.3359 320.922C74.5391 320.651 74.6484 320.388 74.6641 320.133L75.2812 320.828C75.2448 321.047 75.1458 321.289 74.9844 321.555C74.8229 321.82 74.6068 322.076 74.3359 322.32C74.0703 322.56 73.7526 322.76 73.3828 322.922C73.0182 323.078 72.6068 323.156 72.1484 323.156C71.5755 323.156 71.0729 323.044 70.6406 322.82C70.2135 322.596 69.8802 322.297 69.6406 321.922C69.4062 321.542 69.2891 321.117 69.2891 320.648C69.2891 320.195 69.3776 319.797 69.5547 319.453C69.7318 319.104 69.987 318.815 70.3203 318.586C70.6536 318.352 71.0547 318.174 71.5234 318.055C71.9922 317.935 72.5156 317.875 73.0938 317.875H74.7734ZM88.4922 320.125C88.4922 319.859 88.4505 319.625 88.3672 319.422C88.2891 319.214 88.1484 319.026 87.9453 318.859C87.7474 318.693 87.4714 318.534 87.1172 318.383C86.7682 318.232 86.3255 318.078 85.7891 317.922C85.2266 317.755 84.7188 317.57 84.2656 317.367C83.8125 317.159 83.4245 316.922 83.1016 316.656C82.7786 316.391 82.5312 316.086 82.3594 315.742C82.1875 315.398 82.1016 315.005 82.1016 314.562C82.1016 314.12 82.1927 313.711 82.375 313.336C82.5573 312.961 82.8177 312.635 83.1562 312.359C83.5 312.078 83.9089 311.859 84.3828 311.703C84.8568 311.547 85.3854 311.469 85.9688 311.469C86.8229 311.469 87.5469 311.633 88.1406 311.961C88.7396 312.284 89.1953 312.708 89.5078 313.234C89.8203 313.755 89.9766 314.312 89.9766 314.906H88.4766C88.4766 314.479 88.3854 314.102 88.2031 313.773C88.0208 313.44 87.7448 313.18 87.375 312.992C87.0052 312.799 86.5365 312.703 85.9688 312.703C85.4323 312.703 84.9896 312.784 84.6406 312.945C84.2917 313.107 84.0312 313.326 83.8594 313.602C83.6927 313.878 83.6094 314.193 83.6094 314.547C83.6094 314.786 83.6589 315.005 83.7578 315.203C83.862 315.396 84.0208 315.576 84.2344 315.742C84.4531 315.909 84.7292 316.062 85.0625 316.203C85.401 316.344 85.8047 316.479 86.2734 316.609C86.9193 316.792 87.4766 316.995 87.9453 317.219C88.4141 317.443 88.7995 317.695 89.1016 317.977C89.4089 318.253 89.6354 318.568 89.7812 318.922C89.9323 319.271 90.0078 319.667 90.0078 320.109C90.0078 320.573 89.9141 320.992 89.7266 321.367C89.5391 321.742 89.2708 322.062 88.9219 322.328C88.5729 322.594 88.1536 322.799 87.6641 322.945C87.1797 323.086 86.638 323.156 86.0391 323.156C85.513 323.156 84.9948 323.083 84.4844 322.938C83.9792 322.792 83.5182 322.573 83.1016 322.281C82.6901 321.99 82.3594 321.63 82.1094 321.203C81.8646 320.771 81.7422 320.271 81.7422 319.703H83.2422C83.2422 320.094 83.3177 320.43 83.4688 320.711C83.6198 320.987 83.8255 321.216 84.0859 321.398C84.3516 321.581 84.651 321.716 84.9844 321.805C85.3229 321.888 85.6745 321.93 86.0391 321.93C86.5651 321.93 87.0104 321.857 87.375 321.711C87.7396 321.565 88.0156 321.357 88.2031 321.086C88.3958 320.815 88.4922 320.495 88.4922 320.125ZM91.3281 318.867V318.688C91.3281 318.078 91.4167 317.513 91.5938 316.992C91.7708 316.466 92.026 316.01 92.3594 315.625C92.6927 315.234 93.0964 314.932 93.5703 314.719C94.0443 314.5 94.5755 314.391 95.1641 314.391C95.7578 314.391 96.2917 314.5 96.7656 314.719C97.2448 314.932 97.651 315.234 97.9844 315.625C98.3229 316.01 98.5807 316.466 98.7578 316.992C98.9349 317.513 99.0234 318.078 99.0234 318.688V318.867C99.0234 319.477 98.9349 320.042 98.7578 320.562C98.5807 321.083 98.3229 321.539 97.9844 321.93C97.651 322.315 97.2474 322.617 96.7734 322.836C96.3047 323.049 95.7734 323.156 95.1797 323.156C94.5859 323.156 94.0521 323.049 93.5781 322.836C93.1042 322.617 92.6979 322.315 92.3594 321.93C92.026 321.539 91.7708 321.083 91.5938 320.562C91.4167 320.042 91.3281 319.477 91.3281 318.867ZM92.7734 318.688V318.867C92.7734 319.289 92.8229 319.688 92.9219 320.062C93.0208 320.432 93.1693 320.76 93.3672 321.047C93.5703 321.333 93.8229 321.56 94.125 321.727C94.4271 321.888 94.7786 321.969 95.1797 321.969C95.5755 321.969 95.9219 321.888 96.2188 321.727C96.5208 321.56 96.7708 321.333 96.9688 321.047C97.1667 320.76 97.3151 320.432 97.4141 320.062C97.5182 319.688 97.5703 319.289 97.5703 318.867V318.688C97.5703 318.271 97.5182 317.878 97.4141 317.508C97.3151 317.133 97.1641 316.802 96.9609 316.516C96.763 316.224 96.513 315.995 96.2109 315.828C95.9141 315.661 95.5651 315.578 95.1641 315.578C94.7682 315.578 94.4193 315.661 94.1172 315.828C93.8203 315.995 93.5703 316.224 93.3672 316.516C93.1693 316.802 93.0208 317.133 92.9219 317.508C92.8229 317.878 92.7734 318.271 92.7734 318.688ZM106.008 321.047V314.547H107.461V323H106.078L106.008 321.047ZM106.281 319.266L106.883 319.25C106.883 319.812 106.823 320.333 106.703 320.812C106.589 321.286 106.401 321.698 106.141 322.047C105.88 322.396 105.539 322.669 105.117 322.867C104.695 323.06 104.182 323.156 103.578 323.156C103.167 323.156 102.789 323.096 102.445 322.977C102.107 322.857 101.815 322.672 101.57 322.422C101.326 322.172 101.135 321.846 101 321.445C100.87 321.044 100.805 320.562 100.805 320V314.547H102.25V320.016C102.25 320.396 102.292 320.711 102.375 320.961C102.464 321.206 102.581 321.401 102.727 321.547C102.878 321.688 103.044 321.786 103.227 321.844C103.414 321.901 103.607 321.93 103.805 321.93C104.419 321.93 104.906 321.812 105.266 321.578C105.625 321.339 105.883 321.018 106.039 320.617C106.201 320.211 106.281 319.76 106.281 319.266ZM111.109 315.875V323H109.664V314.547H111.07L111.109 315.875ZM113.75 314.5L113.742 315.844C113.622 315.818 113.508 315.802 113.398 315.797C113.294 315.786 113.174 315.781 113.039 315.781C112.706 315.781 112.411 315.833 112.156 315.938C111.901 316.042 111.685 316.188 111.508 316.375C111.331 316.562 111.19 316.786 111.086 317.047C110.987 317.302 110.922 317.583 110.891 317.891L110.484 318.125C110.484 317.615 110.534 317.135 110.633 316.688C110.737 316.24 110.896 315.844 111.109 315.5C111.323 315.151 111.594 314.88 111.922 314.688C112.255 314.49 112.651 314.391 113.109 314.391C113.214 314.391 113.333 314.404 113.469 314.43C113.604 314.451 113.698 314.474 113.75 314.5ZM118.312 321.969C118.656 321.969 118.974 321.898 119.266 321.758C119.557 321.617 119.797 321.424 119.984 321.18C120.172 320.93 120.279 320.646 120.305 320.328H121.68C121.654 320.828 121.484 321.294 121.172 321.727C120.865 322.154 120.461 322.5 119.961 322.766C119.461 323.026 118.911 323.156 118.312 323.156C117.677 323.156 117.122 323.044 116.648 322.82C116.18 322.596 115.789 322.289 115.477 321.898C115.169 321.508 114.938 321.06 114.781 320.555C114.63 320.044 114.555 319.505 114.555 318.938V318.609C114.555 318.042 114.63 317.505 114.781 317C114.938 316.49 115.169 316.039 115.477 315.648C115.789 315.258 116.18 314.951 116.648 314.727C117.122 314.503 117.677 314.391 118.312 314.391C118.974 314.391 119.552 314.526 120.047 314.797C120.542 315.062 120.93 315.427 121.211 315.891C121.497 316.349 121.654 316.87 121.68 317.453H120.305C120.279 317.104 120.18 316.789 120.008 316.508C119.841 316.227 119.612 316.003 119.32 315.836C119.034 315.664 118.698 315.578 118.312 315.578C117.87 315.578 117.497 315.667 117.195 315.844C116.898 316.016 116.661 316.25 116.484 316.547C116.312 316.839 116.188 317.164 116.109 317.523C116.036 317.878 116 318.24 116 318.609V318.938C116 319.307 116.036 319.672 116.109 320.031C116.182 320.391 116.305 320.716 116.477 321.008C116.654 321.299 116.891 321.534 117.188 321.711C117.49 321.883 117.865 321.969 118.312 321.969ZM126.812 323.156C126.224 323.156 125.69 323.057 125.211 322.859C124.737 322.656 124.328 322.372 123.984 322.008C123.646 321.643 123.385 321.211 123.203 320.711C123.021 320.211 122.93 319.664 122.93 319.07V318.742C122.93 318.055 123.031 317.443 123.234 316.906C123.438 316.365 123.714 315.906 124.062 315.531C124.411 315.156 124.807 314.872 125.25 314.68C125.693 314.487 126.151 314.391 126.625 314.391C127.229 314.391 127.75 314.495 128.188 314.703C128.63 314.911 128.992 315.203 129.273 315.578C129.555 315.948 129.763 316.385 129.898 316.891C130.034 317.391 130.102 317.938 130.102 318.531V319.18H123.789V318H128.656V317.891C128.635 317.516 128.557 317.151 128.422 316.797C128.292 316.443 128.083 316.151 127.797 315.922C127.51 315.693 127.12 315.578 126.625 315.578C126.297 315.578 125.995 315.648 125.719 315.789C125.443 315.924 125.206 316.128 125.008 316.398C124.81 316.669 124.656 317 124.547 317.391C124.438 317.781 124.383 318.232 124.383 318.742V319.07C124.383 319.471 124.438 319.849 124.547 320.203C124.661 320.552 124.826 320.859 125.039 321.125C125.258 321.391 125.521 321.599 125.828 321.75C126.141 321.901 126.495 321.977 126.891 321.977C127.401 321.977 127.833 321.872 128.188 321.664C128.542 321.456 128.852 321.177 129.117 320.828L129.992 321.523C129.81 321.799 129.578 322.062 129.297 322.312C129.016 322.562 128.669 322.766 128.258 322.922C127.852 323.078 127.37 323.156 126.812 323.156ZM136.711 320.758C136.711 320.549 136.664 320.357 136.57 320.18C136.482 319.997 136.297 319.833 136.016 319.688C135.74 319.536 135.323 319.406 134.766 319.297C134.297 319.198 133.872 319.081 133.492 318.945C133.117 318.81 132.797 318.646 132.531 318.453C132.271 318.26 132.07 318.034 131.93 317.773C131.789 317.513 131.719 317.208 131.719 316.859C131.719 316.526 131.792 316.211 131.938 315.914C132.089 315.617 132.299 315.354 132.57 315.125C132.846 314.896 133.177 314.716 133.562 314.586C133.948 314.456 134.378 314.391 134.852 314.391C135.529 314.391 136.107 314.51 136.586 314.75C137.065 314.99 137.432 315.31 137.688 315.711C137.943 316.107 138.07 316.547 138.07 317.031H136.625C136.625 316.797 136.555 316.57 136.414 316.352C136.279 316.128 136.078 315.943 135.812 315.797C135.552 315.651 135.232 315.578 134.852 315.578C134.451 315.578 134.125 315.641 133.875 315.766C133.63 315.885 133.451 316.039 133.336 316.227C133.227 316.414 133.172 316.612 133.172 316.82C133.172 316.977 133.198 317.117 133.25 317.242C133.307 317.362 133.406 317.474 133.547 317.578C133.688 317.677 133.885 317.771 134.141 317.859C134.396 317.948 134.721 318.036 135.117 318.125C135.81 318.281 136.38 318.469 136.828 318.688C137.276 318.906 137.609 319.174 137.828 319.492C138.047 319.81 138.156 320.195 138.156 320.648C138.156 321.018 138.078 321.357 137.922 321.664C137.771 321.971 137.549 322.237 137.258 322.461C136.971 322.68 136.628 322.852 136.227 322.977C135.831 323.096 135.385 323.156 134.891 323.156C134.146 323.156 133.516 323.023 133 322.758C132.484 322.492 132.094 322.148 131.828 321.727C131.562 321.305 131.43 320.859 131.43 320.391H132.883C132.904 320.786 133.018 321.102 133.227 321.336C133.435 321.565 133.69 321.729 133.992 321.828C134.294 321.922 134.594 321.969 134.891 321.969C135.286 321.969 135.617 321.917 135.883 321.812C136.154 321.708 136.359 321.565 136.5 321.383C136.641 321.201 136.711 320.992 136.711 320.758Z" fill="#152F40"/>
<path d="M89.9393 302.061C90.5251 302.646 91.4749 302.646 92.0607 302.061L101.607 292.515C102.192 291.929 102.192 290.979 101.607 290.393C101.021 289.808 100.071 289.808 99.4853 290.393L91 298.879L82.5147 290.393C81.9289 289.808 80.9792 289.808 80.3934 290.393C79.8076 290.979 79.8076 291.929 80.3934 292.515L89.9393 302.061ZM89.5 277V301H92.5V277H89.5Z" fill="white"/>
<path d="M90.4393 246.061C91.0251 246.646 91.9749 246.646 92.5607 246.061L102.107 236.515C102.692 235.929 102.692 234.979 102.107 234.393C101.521 233.808 100.571 233.808 99.9853 234.393L91.5 242.879L83.0147 234.393C82.4289 233.808 81.4792 233.808 80.8934 234.393C80.3076 234.979 80.3076 235.929 80.8934 236.515L90.4393 246.061ZM90 144V245H93V144H90Z" fill="#CECCCC"/>
</svg>
